<?xml version="1.0" encoding="UTF-8"?>
<svg id="Layer_1" data-name="Layer 1" xmlns="http://www.w3.org/2000/svg" viewBox="0 0 764.43 150.7">
  <g>
    <path d="m470.64,121.65h-62.1v-15.1h41.8c9.43,0,17.07-7.64,17.07-17.07v-3.06h-72.68c-9.43,0-17.07,7.64-17.07,17.07v21.23c0,9.43,7.64,17.07,17.07,17.07h92.98v-3.06c0-9.43-7.64-17.07-17.07-17.07Z" fill="#1e4479"/>
    <path d="m377.65,68.13v3.07h92.98c9.43,0,17.07-7.64,17.07-17.07v-3.07h-92.98c-9.43,0-17.07,7.64-17.07,17.07Z" fill="#1e4479"/>
    <path d="m518.44,68.13v3.07h42.91v70.59h29.14v-70.59h25.84c9.43,0,17.07-7.64,17.07-17.07v-3.07h-97.89c-9.43,0-17.07,7.64-17.07,17.07Z" fill="#1e4479"/>
    <path d="m717.62,51.06h-32.3l-45.75,90.72h21.44c5.06,0,9.66-2.91,11.83-7.48l29.02-61.25,16.66,35.01h-9.97c-3.74,0-7.14,2.19-8.68,5.6l-5.7,12.61h33.01l3.84,8.05c2.17,4.56,6.77,7.46,11.82,7.46h21.6l-46.8-90.72Z" fill="#1e4479"/>
    <path d="m325.97,49.09h-11.35c-2.33-.02-5-.03-8.06-.03h-59.75c-9.43,0-17.07,7.64-17.07,17.07v5.07h84.87v15.23h-67.81c-9.43,0-17.07,7.64-17.07,17.07v38.29h29.14v-35.23h34.76l15.83,35.23h33.76l-19.64-35.23s.03-.05.05-.09h2.32c9.81,0,17.76-7.95,17.76-17.76v-21.86c0-9.81-7.95-17.76-17.76-17.76Z" fill="#1e4479"/>
  </g>
  <polygon points="67.4 8.29 51.7 14.95 51.7 150.7 67.4 150.7 67.4 8.29" fill="#004482"/>
  <polygon points="26.81 150.7 42.51 150.7 42.51 18.85 26.81 25.5 26.81 150.7" fill="#0191ca"/>
  <path d="m168.96,34.04L93.49.91c-2.72-1.19-5.81-1.21-8.54-.05l-8.36,3.54v146.3h88.03c5.95,0,10.78-4.82,10.78-10.78V43.91c0-4.28-2.53-8.15-6.44-9.87Z" fill="#004482"/>
  <path d="m17.62,29.4l-11.05,4.68c-3.98,1.69-6.57,5.6-6.57,9.92v95.92c0,5.95,4.83,10.78,10.78,10.78h6.84V29.4Z" fill="#00c1f3"/>
</svg>